# xmcd
#
# Track frame offsets:
#	150
#	17625
#	41175
#	62025
#	81525
#	99000
#	115125
#	134025
#	154875
#	170550
#	183375
#	198975
#	216750
#	233925
#	248250
#	267675
#
# Disc length: 3766 seconds
#
# Revision: 2
# Processed by: cddbd v1.5.2PL0 Copyright (c) Steve Scherf et al.
# Submitted via: EZCDAudioConverter 8.2.2.1
#
DISCID=e40eb410
DTITLE=Various Artist - 鑑聽天碟 ADMS CD2
DYEAR=2013
DGENRE=Contemporary Pop
TTITLE0=陳百強 - 等
TTITLE1=林子祥 - 舊居中的鋼琴
TTITLE2=王傑 - 天才白痴往日情
TTITLE3=夏韶聲 - 啤酒罐
TTITLE4=葉振棠 - 笛子姑娘
TTITLE5=盧冠廷 - 世事何曾是絕對
TTITLE6=巫啟賢 - 心酸的情歌
TTITLE7=呂方 - 請你跟我走
TTITLE8=杜德偉 - 印象
TTITLE9=林子祥 - 活色生香
TTITLE10=周啟生 - 天長地久
TTITLE11=劉德華 - 下雨晚上
TTITLE12=張智霖 - 我也喜歡你
TTITLE13=陳百強 - 漣漪
TTITLE14=羅文 - 紅綿
TTITLE15=區瑞強 - 陌上歸人
EXTD=
EXTT0=
EXTT1=
EXTT2=
EXTT3=
EXTT4=
EXTT5=
EXTT6=
EXTT7=
EXTT8=
EXTT9=
EXTT10=
EXTT11=
EXTT12=
EXTT13=
EXTT14=
EXTT15=
PLAYORDER=
